<svg width="44" height="44" viewBox="0 0 44 44" fill="none" xmlns="http://www.w3.org/2000/svg">
<path d="M20.5496 38.2703C20.5155 38.2703 20.4814 38.2659 20.4473 38.2571C20.2735 38.2098 20.1558 38.0492 20.1624 37.8699L20.1921 37.0097C20.1954 36.9085 20.2031 36.8051 20.2119 36.7028C20.2284 36.5114 20.2438 36.331 20.2163 36.1803C20.1591 35.8646 20.1085 35.5478 20.0579 35.2288C19.9127 34.3103 19.7752 33.4435 19.4749 32.6075C19.4584 32.5635 19.443 32.5173 19.4276 32.4733C18.9667 34.1233 17.54 35.4642 16.1606 36.76L15.9384 36.9701C15.8064 37.0922 15.6084 37.1109 15.4588 37.0108C15.3081 36.9118 15.2465 36.7226 15.307 36.5543L15.6018 35.7458C15.6359 35.649 15.6755 35.5544 15.7162 35.4587C15.7899 35.2827 15.8603 35.1144 15.8812 34.9637C15.9241 34.6469 15.9747 34.3301 16.0242 34.0122C16.1694 33.0926 16.3069 32.2236 16.2794 31.3359C16.2783 31.2897 16.2772 31.2413 16.2761 31.1951C15.3279 32.6196 13.5602 33.4523 11.8508 34.2586L11.5692 34.3917C11.4053 34.4665 11.2128 34.4236 11.1006 34.2839C10.9884 34.1431 10.9873 33.9451 11.0984 33.8032L11.6286 33.1234C11.6913 33.0431 11.7573 32.9661 11.8244 32.8891C11.9498 32.7428 12.0686 32.6053 12.1346 32.4678C12.2732 32.1785 12.4195 31.8936 12.5647 31.6076C12.9871 30.7771 13.3864 29.9939 13.635 29.1414C13.6482 29.0963 13.6614 29.0501 13.6757 29.0061C12.3315 30.0698 10.3889 30.3151 8.51011 30.5538L8.20981 30.5912C8.02941 30.6154 7.86111 30.5109 7.79731 30.3448C7.73351 30.1765 7.79401 29.9862 7.94251 29.8861L8.65641 29.4032C8.74001 29.3471 8.82801 29.2932 8.91601 29.2393C9.07991 29.1392 9.23501 29.0457 9.34061 28.9357C9.56171 28.7036 9.78941 28.477 10.016 28.2493C10.6738 27.5915 11.2953 26.97 11.7936 26.2352C11.8211 26.1967 11.8486 26.1571 11.8761 26.1186C10.269 26.7126 8.34401 26.3507 6.48281 25.9954L6.18581 25.9393C6.00981 25.9063 5.87891 25.7567 5.87011 25.5763C5.86131 25.397 5.97681 25.2353 6.14951 25.1858L6.88761 24.9735C7.07681 24.9185 7.17801 24.8943 7.28031 24.8712C7.46621 24.8283 7.64111 24.7865 7.77421 24.7139C8.05801 24.561 8.34511 24.4147 8.63331 24.2684C9.46051 23.846 10.2426 23.4478 10.9422 22.9055C10.9796 22.8758 11.017 22.8472 11.0555 22.8186C9.35491 22.8956 7.62901 21.9485 5.97021 21.0377L5.70181 20.8903C5.54451 20.8034 5.46641 20.6208 5.51371 20.4481C5.56101 20.2743 5.70951 20.1247 5.90091 20.1632L6.76221 20.1929C6.86341 20.1962 6.96681 20.2039 7.06911 20.2127C7.26161 20.2292 7.43981 20.2435 7.59161 20.2171C7.90731 20.1599 8.22411 20.1093 8.54201 20.0587C9.46161 19.9124 10.3295 19.7749 11.1644 19.4746C11.2084 19.4581 11.2535 19.4427 11.2986 19.4273C9.64751 18.9653 8.30661 17.5386 7.00971 16.1581L6.80181 15.9381C6.67861 15.8072 6.66211 15.6081 6.76001 15.4585C6.85571 15.31 7.04381 15.2484 7.21321 15.31L8.02171 15.6037C8.11741 15.6378 8.21201 15.6774 8.30661 15.717C8.48371 15.7918 8.65091 15.8622 8.80271 15.8831C9.12061 15.926 9.43741 15.9766 9.75421 16.0261C10.6738 16.1713 11.5384 16.3022 12.4294 16.2813C12.4767 16.2802 12.524 16.2791 12.5724 16.278C11.1457 15.3298 10.3108 13.5599 9.50451 11.8483L9.37251 11.57C9.29551 11.4072 9.34061 11.2136 9.48031 11.1014C9.62111 10.9892 9.82021 10.9881 9.96101 11.0981L10.6408 11.6283C10.7211 11.691 10.7981 11.7581 10.8762 11.8252C11.0214 11.9506 11.1589 12.0694 11.2964 12.1354C11.5857 12.274 11.8717 12.4203 12.1577 12.5655C12.9871 12.9879 13.7703 13.3872 14.6228 13.6347C14.6679 13.6479 14.7141 13.6611 14.7592 13.6754C13.6966 12.3323 13.4502 10.3919 13.2115 8.51645L13.173 8.20955C13.151 8.03135 13.2533 7.86085 13.4216 7.79705C13.5888 7.73325 13.7791 7.79375 13.8792 7.94335L14.361 8.65725C14.4182 8.74085 14.471 8.82885 14.5249 8.91685C14.625 9.08075 14.7185 9.23585 14.8285 9.34145C15.0606 9.56255 15.2872 9.79025 15.5149 10.0168C16.1727 10.6746 16.7942 11.2961 17.5279 11.7944C17.5675 11.8219 17.6071 11.8494 17.6456 11.8769C17.0483 10.2709 17.4135 8.34925 17.7677 6.48915L17.8249 6.18665C17.8579 6.01065 18.0086 5.87975 18.1879 5.87095C18.3705 5.85995 18.5289 5.97875 18.5784 6.15145L18.816 6.97865C18.8446 7.07655 18.8688 7.17775 18.8919 7.27785C18.9359 7.46375 18.9777 7.64085 19.0492 7.77505C19.201 8.05775 19.3484 8.34375 19.4936 8.63085C19.916 9.45915 20.3153 10.2412 20.8576 10.943C20.8873 10.9804 20.9159 11.0178 20.9445 11.0563C20.8741 9.34475 21.8157 7.62985 22.7265 5.96995L22.8728 5.70265C22.9586 5.54535 23.1346 5.46505 23.3161 5.51455C23.4888 5.56185 23.6076 5.72135 23.601 5.90175L23.5713 6.76195C23.568 6.86425 23.5592 6.96655 23.5504 7.06885C23.5339 7.26025 23.5185 7.44065 23.5471 7.59135C23.6043 7.90815 23.6549 8.22825 23.7066 8.54725C23.8518 9.46465 23.9893 10.3303 24.2885 11.163C24.305 11.207 24.3204 11.2521 24.3358 11.2972C24.7978 9.64725 26.2245 8.30635 27.6028 7.01055L27.825 6.80155C27.957 6.67835 28.155 6.66185 28.3046 6.75975C28.4542 6.85875 28.5169 7.04685 28.4564 7.21515L28.1638 8.02475C28.1297 8.12045 28.089 8.21615 28.0494 8.31185C27.9757 8.48895 27.9053 8.65505 27.8844 8.80685C27.8415 9.12585 27.7909 9.44485 27.7403 9.76385C27.5951 10.6812 27.4587 11.5469 27.4862 12.4324C27.4884 12.4797 27.4895 12.5281 27.4895 12.5754C28.4377 11.1487 30.2087 10.3149 31.9214 9.50755L32.1986 9.37665C32.3603 9.30075 32.5539 9.34365 32.6672 9.48555C32.7794 9.62525 32.7805 9.82435 32.6694 9.96625L32.1414 10.6438C32.0776 10.7252 32.0116 10.8022 31.9445 10.8792C31.818 11.0244 31.6992 11.1619 31.6332 11.3005C31.4935 11.5898 31.3483 11.8758 31.202 12.1629C30.7796 12.9923 30.3814 13.7744 30.1339 14.6258C30.1207 14.6709 30.1064 14.7171 30.0932 14.7622C31.4363 13.6996 33.3767 13.4532 35.2533 13.2145L35.558 13.176C35.7494 13.1529 35.9078 13.2563 35.9705 13.4235C36.0343 13.5918 35.9738 13.781 35.8253 13.8822L35.1125 14.364C35.0278 14.4212 34.9398 14.474 34.8518 14.5279C34.6868 14.628 34.5328 14.7215 34.4272 14.8315C34.205 15.0636 33.9795 15.2891 33.7529 15.5157C33.094 16.1746 32.4714 16.7972 31.972 17.532C31.9445 17.5727 31.9159 17.6123 31.8862 17.6508C31.8862 17.6508 31.8873 17.6508 31.8884 17.6497C33.4944 17.0524 35.4172 17.4176 37.2762 17.7718L37.5798 17.8301C37.7558 17.8631 37.8856 18.0138 37.8944 18.1931C37.9032 18.3724 37.7866 18.5341 37.6139 18.5836L36.7867 18.8212C36.6877 18.8498 36.5887 18.874 36.4875 18.8971C36.3005 18.9411 36.1234 18.9818 35.9892 19.0544C35.7054 19.2073 35.4194 19.3536 35.1323 19.4999C34.304 19.9223 33.5219 20.3205 32.8223 20.8639C32.7849 20.8936 32.7453 20.9222 32.7079 20.9508C34.4173 20.8804 36.1355 21.8209 37.7943 22.7328L38.0627 22.8802C38.2211 22.9671 38.2981 23.1497 38.2508 23.3235C38.2035 23.4973 38.0418 23.5886 37.8636 23.6084L37.0034 23.5787C36.9022 23.5754 36.7988 23.5666 36.6965 23.5578C36.5051 23.5413 36.3214 23.5259 36.174 23.5545C35.8572 23.6117 35.5371 23.6623 35.217 23.714C34.3007 23.8592 33.435 23.9967 32.6012 24.2959C32.5572 24.3124 32.511 24.3278 32.4659 24.3421C34.1159 24.8041 35.4568 26.2297 36.7526 27.608L36.9638 27.8324C37.087 27.9633 37.1046 28.1613 37.0056 28.3109C36.9066 28.4627 36.7152 28.5276 36.5502 28.4638L35.7373 28.169C35.6427 28.1349 35.547 28.0942 35.4502 28.0546C35.2742 27.9809 35.107 27.9105 34.9574 27.8896C34.6384 27.8467 34.3194 27.7961 33.9993 27.7455C33.0819 27.6003 32.2151 27.4661 31.3296 27.4914C31.2823 27.4936 31.2328 27.4947 31.1855 27.4936C32.6133 28.4418 33.4471 30.2117 34.2534 31.9244L34.3854 32.2038C34.4624 32.3666 34.4173 32.5602 34.2776 32.6724C34.1357 32.7835 33.9366 32.7857 33.7958 32.6746L33.1182 32.1466C33.0368 32.0828 32.9598 32.0168 32.8828 31.9497C32.7376 31.8243 32.599 31.7044 32.4604 31.6384C32.1711 31.4987 31.8862 31.3535 31.5991 31.2072C30.7697 30.7848 29.9865 30.3866 29.1351 30.1391C29.0889 30.1248 29.0427 30.1105 28.9976 30.0962C30.0624 31.4404 30.3088 33.3841 30.5475 35.264L30.5849 35.5632C30.6091 35.7414 30.5057 35.913 30.3385 35.9757C30.1669 36.0406 29.9788 35.979 29.8798 35.8305L29.398 35.1177C29.3408 35.033 29.288 34.945 29.233 34.857C29.1329 34.692 29.0394 34.538 28.9305 34.4313C28.6984 34.2102 28.4729 33.9847 28.2463 33.7581C27.5874 33.0992 26.9648 32.4766 26.2289 31.9772C26.1882 31.9497 26.1486 31.92 26.1101 31.8892C26.1112 31.8903 26.1112 31.8914 26.1123 31.8936C26.7096 33.5018 26.3444 35.4257 25.9891 37.2869L25.933 37.5861C25.9 37.761 25.7504 37.8919 25.57 37.9007C25.4017 37.9106 25.229 37.7951 25.1795 37.6213L24.9408 36.793C24.9122 36.694 24.8891 36.595 24.866 36.4938C24.822 36.3068 24.7802 36.1297 24.7087 35.9955C24.5547 35.7117 24.4084 35.4235 24.261 35.1353C23.8386 34.3081 23.4404 33.5271 22.8992 32.8286C22.8695 32.7901 22.8409 32.7516 22.8123 32.7142C22.8838 34.4269 21.9411 36.1429 21.0292 37.8028L20.8829 38.069C20.8202 38.1955 20.6882 38.2703 20.5496 38.2703ZM19.3605 31.2006C19.3913 31.2006 19.4221 31.205 19.4518 31.2138L19.6905 31.2743C19.8236 31.3106 19.9281 31.4173 19.9633 31.5515C20.0326 31.8177 20.1085 32.0828 20.2031 32.3457C20.5276 33.2488 20.6772 34.1937 20.8224 35.1067C20.8719 35.418 20.9214 35.7304 20.9775 36.0406C20.9885 36.1033 20.9962 36.166 21.0006 36.2287C21.6199 35.0264 22.0896 33.8714 22.0423 32.7428C22.0335 32.5382 22.0456 32.3336 22.0588 32.1268L22.0676 31.9739C22.0786 31.7715 22.2447 31.6109 22.4471 31.6087C22.534 31.6065 22.6198 31.601 22.7056 31.5955C22.8475 31.5966 23.0334 31.6505 23.1093 31.7649C23.2457 31.9728 23.3733 32.1664 23.5163 32.3512C24.1026 33.108 24.5371 33.9583 24.9562 34.78C25.1003 35.0638 25.2444 35.3454 25.394 35.6248C25.4259 35.6809 25.4512 35.7381 25.4743 35.7953C25.6921 34.461 25.7812 33.2169 25.3885 32.1598C25.3302 32.0025 25.2873 31.8397 25.2444 31.6747L25.2004 31.5075C25.1465 31.3128 25.251 31.1082 25.4424 31.04L25.5656 30.996C25.6547 30.9652 25.7427 30.9355 25.8296 30.8981C25.9572 30.8464 26.1068 30.864 26.2168 30.9498C26.2927 31.0092 26.3642 31.073 26.4346 31.1368C26.5105 31.205 26.5842 31.2732 26.6678 31.3315C27.4642 31.8727 28.1418 32.5503 28.7974 33.2048C29.0196 33.427 29.2407 33.6492 29.4684 33.8659C29.5146 33.9099 29.5575 33.9572 29.5971 34.0045C29.3914 32.668 29.0922 31.4558 28.3915 30.5736C28.3002 30.4592 28.221 30.3338 28.1407 30.2084L28.0428 30.0566C27.9306 29.8894 27.9658 29.6628 28.1242 29.5374C28.2298 29.4538 28.3321 29.3658 28.4333 29.2767C28.5378 29.1821 28.6852 29.1546 28.8183 29.2019L28.9723 29.258C29.0988 29.3042 29.2242 29.3515 29.3551 29.3889C30.2747 29.6562 31.1272 30.0896 31.9522 30.5098C32.2338 30.6528 32.5154 30.7969 32.7981 30.9333C32.8564 30.9619 32.9103 30.9916 32.9642 31.0257C32.3559 29.8179 31.697 28.7575 30.7587 28.136C30.6377 28.0557 30.5266 27.9644 30.4144 27.872L30.2769 27.7609C30.1185 27.6377 30.0822 27.4144 30.1889 27.2472C30.2626 27.1317 30.3341 27.0129 30.4034 26.893C30.476 26.7698 30.6124 26.7016 30.7521 26.7005L30.8852 26.7049C31.0249 26.7104 31.1657 26.7159 31.3065 26.7126C32.2668 26.6796 33.2095 26.8325 34.1225 26.9755C34.436 27.025 34.7495 27.0756 35.063 27.1174C35.1268 27.1262 35.1884 27.1383 35.2478 27.1526C34.2963 26.1923 33.3426 25.3893 32.2569 25.0846C32.1062 25.0439 31.9588 24.9856 31.8125 24.9284L31.6508 24.8657C31.466 24.7964 31.3615 24.5995 31.4099 24.407L31.4484 24.2607C31.4704 24.1826 31.4913 24.1034 31.5078 24.0242C31.5375 23.8834 31.642 23.7712 31.7806 23.7305L31.9115 23.6931C32.0545 23.6535 32.1975 23.6128 32.3394 23.5622C33.2403 23.2377 34.183 23.0881 35.0949 22.9429C35.4084 22.8934 35.7241 22.8428 36.0354 22.7867C36.0981 22.7757 36.1608 22.768 36.2235 22.7636C35.0212 22.1443 33.8706 21.6779 32.7376 21.7219C32.5572 21.7285 32.3757 21.7197 32.192 21.7076L32.0259 21.6977C31.8312 21.6878 31.6739 21.5349 31.6596 21.3413C31.6497 21.2258 31.6409 21.1103 31.6266 20.997C31.609 20.8518 31.675 20.7099 31.796 20.6285C32.0248 20.4767 32.1876 20.3689 32.3449 20.2468C33.1039 19.6594 33.9553 19.2249 34.7781 18.8047C35.0608 18.6606 35.3424 18.5176 35.6196 18.368C35.6757 18.3372 35.7329 18.3108 35.7901 18.2877C34.4547 18.071 33.2106 17.9808 32.1546 18.3735C31.9445 18.4516 31.7256 18.5077 31.5078 18.5638L31.3813 18.5968C31.1943 18.6419 31.0029 18.5506 30.927 18.3735C30.9039 18.3174 30.8775 18.2646 30.85 18.2107L30.7862 18.0809C30.7235 17.9467 30.7433 17.7883 30.8357 17.6728C30.905 17.5881 30.9765 17.5078 31.0491 17.4275C31.147 17.3197 31.2438 17.2141 31.3263 17.092C31.8686 16.2956 32.5462 15.618 33.2007 14.9635C33.4229 14.7413 33.6451 14.5191 33.8618 14.2925C33.9058 14.2463 33.952 14.2034 33.9993 14.1638C32.6628 14.3695 31.4517 14.6676 30.5695 15.3683C30.3253 15.5619 30.058 15.7302 29.7896 15.8952C29.6257 15.992 29.4189 15.9623 29.2935 15.8204L29.1626 15.6763C29.0603 15.5663 29.0306 15.4068 29.0856 15.2671C29.1978 14.9877 29.299 14.7017 29.3848 14.4069C29.6521 13.4851 30.0855 12.6326 30.5057 11.8087C30.6487 11.5271 30.7928 11.2455 30.9292 10.9617C30.9578 10.9045 30.9875 10.8495 31.0216 10.7967C29.8138 11.405 28.7545 12.0639 28.1319 13.0022C27.9559 13.2673 27.7458 13.5346 27.4719 13.847C27.3498 13.9867 27.1463 14.0197 26.9846 13.9251C26.8559 13.8503 26.6667 13.6369 26.6788 13.4884C26.7074 13.1474 26.7184 12.8031 26.7085 12.4533C26.6777 11.4941 26.8273 10.5514 26.9714 9.63845C27.0209 9.32495 27.0715 9.01145 27.1133 8.69795C27.1221 8.63415 27.1342 8.57255 27.1485 8.51315C26.1882 9.46465 25.3852 10.4183 25.0805 11.5051C24.9782 11.8758 24.8407 12.2531 24.6724 12.6271C24.5965 12.7943 24.415 12.8878 24.2379 12.8471C24.0894 12.8152 23.9068 12.6832 23.8727 12.5358C23.7759 12.1068 23.6758 11.7526 23.5581 11.4226C23.2336 10.5206 23.0829 9.57795 22.9388 8.66605C22.8893 8.35255 22.8387 8.03905 22.7826 7.72665C22.7716 7.66395 22.7639 7.60125 22.7595 7.53965C22.1402 8.74195 21.6705 9.89695 21.7178 11.0244C21.7354 11.427 21.7156 11.8527 21.6595 12.3213C21.6397 12.4874 21.5154 12.6205 21.3526 12.6546C21.1898 12.6887 21.0226 12.6139 20.939 12.4687C20.6959 12.0474 20.4748 11.713 20.2438 11.4149C19.6553 10.6559 19.2208 9.80455 18.8006 8.98065C18.6576 8.69905 18.5135 8.41745 18.365 8.14025C18.3342 8.08305 18.3078 8.02695 18.2847 7.96975C18.0669 9.30405 17.9778 10.5481 18.3705 11.6052C18.5135 11.9902 18.629 12.417 18.7225 12.9098C18.7544 13.0737 18.6774 13.2387 18.5311 13.3201C18.3859 13.4026 18.2044 13.3828 18.0812 13.2695L17.9349 13.1364C17.6544 12.8801 17.3893 12.6381 17.089 12.4335C16.2981 11.8956 15.6216 11.2191 14.9671 10.5657C14.7438 10.3413 14.5205 10.1191 14.2939 9.90135C14.2477 9.85735 14.2048 9.81115 14.1652 9.76385C14.3698 11.1003 14.669 12.3114 15.3697 13.1947C15.6205 13.5104 15.8537 13.8646 16.0847 14.2782C16.1661 14.4234 16.1452 14.606 16.0319 14.7281C15.9208 14.8513 15.7415 14.8887 15.5886 14.8216C15.1442 14.6236 14.768 14.4839 14.4072 14.3783C13.4843 14.111 12.6318 13.6765 11.8057 13.2563C11.5252 13.1133 11.2436 12.9703 10.9609 12.8339C10.9026 12.8064 10.8487 12.7756 10.7959 12.7426C11.4042 13.9504 12.0631 15.0097 13.0014 15.6334C13.3402 15.8589 13.6724 16.124 14.0167 16.4441C14.1388 16.5574 14.1751 16.7367 14.1058 16.8885C14.0365 17.0403 13.8748 17.1305 13.712 17.114C13.2324 17.0634 12.832 17.0447 12.4525 17.0557C11.4933 17.0887 10.5473 16.9358 9.63211 16.7917C9.32081 16.7422 9.00951 16.6927 8.69821 16.6509C8.63441 16.6432 8.57281 16.63 8.51341 16.6157C9.46491 17.576 10.4186 18.3801 11.5054 18.6837C11.8937 18.7915 12.2919 18.9411 12.7209 19.1402C12.8727 19.2106 12.9618 19.3701 12.9431 19.5362C12.9244 19.7023 12.8023 19.8376 12.6395 19.8717C12.1621 19.9729 11.776 20.0796 11.4229 20.2072C10.5187 20.5328 9.57381 20.6824 8.65971 20.8276C8.34841 20.8771 8.03601 20.9266 7.72691 20.9827C7.66421 20.9937 7.60151 21.0014 7.53991 21.0058C8.74111 21.624 9.88401 22.0926 11.0247 22.0475C11.4273 22.0277 11.8497 22.0486 12.3216 22.1058C12.4877 22.1256 12.6219 22.2488 12.6549 22.4127C12.6879 22.5766 12.6142 22.7427 12.469 22.8263C12.0488 23.0705 11.7133 23.2916 11.4163 23.5215C10.6584 24.1089 9.80701 24.5434 8.98421 24.9625C8.70151 25.1077 8.41991 25.2518 8.14051 25.4003C8.08441 25.4322 8.02721 25.4575 7.97001 25.4806C9.30431 25.6984 10.5506 25.7875 11.6055 25.3948C11.9839 25.2529 12.3821 25.1429 12.8232 25.0538C13.0157 25.023 13.1994 25.1231 13.2632 25.3024C13.3116 25.4366 13.305 25.6467 13.2104 25.7523L13.03 25.9536C12.8122 26.1934 12.6065 26.42 12.4338 26.6752C11.8937 27.4694 11.2172 28.1459 10.5627 28.8004C10.3394 29.0237 10.1161 29.247 9.89831 29.4747C9.85431 29.5209 9.80701 29.5638 9.75971 29.6034C11.0962 29.3977 12.3084 29.0996 13.1917 28.3978C13.4733 28.1734 13.7846 27.9644 14.141 27.7576C14.3104 27.6575 14.5282 27.7037 14.6459 27.8599C14.7295 27.9699 14.8054 28.1943 14.7515 28.3219C14.5887 28.7058 14.4688 29.0358 14.3753 29.3592C14.1069 30.2821 13.6724 31.1357 13.2522 31.9607C13.1092 32.2423 12.9662 32.5228 12.8298 32.8055C12.8023 32.8627 12.7715 32.9166 12.7385 32.9705C13.9463 32.3622 15.0056 31.7033 15.6293 30.765C15.8273 30.4658 16.055 30.1941 16.2508 29.9675C16.3828 29.8157 16.6094 29.7915 16.77 29.907C16.88 29.9862 17.0813 30.2205 17.0714 30.3547C17.0483 30.6715 17.0417 30.9905 17.0516 31.3139C17.0824 32.2742 16.9328 33.2191 16.7876 34.1354C16.7381 34.4456 16.6886 34.758 16.6468 35.0693C16.6391 35.1331 16.6259 35.1947 16.6116 35.2541C17.5719 34.3026 18.376 33.3489 18.6796 32.2632C18.7533 31.997 18.8567 31.7407 18.9612 31.4833C19.025 31.3249 19.1933 31.2006 19.3605 31.2006ZM32.4736 23.9296H32.4835H32.4736Z" fill="black"/>
<path d="M19.3605 31.2006C19.3913 31.2006 19.4221 31.205 19.4518 31.2138L19.6905 31.2743C19.8236 31.3106 19.9281 31.4173 19.9633 31.5515C20.0326 31.8177 20.1085 32.0828 20.2031 32.3457C20.5276 33.2488 20.6772 34.1937 20.8224 35.1067C20.8719 35.418 20.9214 35.7304 20.9775 36.0406C20.9885 36.1033 20.9962 36.166 21.0006 36.2287C21.6199 35.0264 22.0896 33.8714 22.0423 32.7428C22.0335 32.5382 22.0456 32.3336 22.0588 32.1268L22.0676 31.9739C22.0786 31.7715 22.2447 31.6109 22.4471 31.6087C22.534 31.6065 22.6198 31.601 22.7056 31.5955C22.8475 31.5966 23.0334 31.6505 23.1093 31.7649C23.2457 31.9728 23.3733 32.1664 23.5163 32.3512C24.1026 33.108 24.5371 33.9583 24.9562 34.78C25.1003 35.0638 25.2444 35.3454 25.394 35.6248C25.4259 35.6809 25.4512 35.7381 25.4743 35.7953C25.6921 34.461 25.7812 33.2169 25.3885 32.1598C25.3302 32.0025 25.2873 31.8397 25.2444 31.6747L25.2004 31.5075C25.1465 31.3128 25.251 31.1082 25.4424 31.04L25.5656 30.996C25.6547 30.9652 25.7427 30.9355 25.8296 30.8981C25.9572 30.8464 26.1068 30.864 26.2168 30.9498C26.2927 31.0092 26.3642 31.073 26.4346 31.1368C26.5105 31.205 26.5842 31.2732 26.6678 31.3315C27.4642 31.8727 28.1418 32.5503 28.7974 33.2048C29.0196 33.427 29.2407 33.6492 29.4684 33.8659C29.5146 33.9099 29.5575 33.9572 29.5971 34.0045C29.3914 32.668 29.0922 31.4558 28.3915 30.5736C28.3002 30.4592 28.221 30.3338 28.1407 30.2084L28.0428 30.0566C27.9306 29.8894 27.9658 29.6628 28.1242 29.5374C28.2298 29.4538 28.3321 29.3658 28.4333 29.2767C28.5378 29.1821 28.6852 29.1546 28.8183 29.2019L28.9723 29.258C29.0988 29.3042 29.2242 29.3515 29.3551 29.3889C30.2747 29.6562 31.1272 30.0896 31.9522 30.5098C32.2338 30.6528 32.5154 30.7969 32.7981 30.9333C32.8564 30.9619 32.9103 30.9916 32.9642 31.0257C32.3559 29.8179 31.697 28.7575 30.7587 28.136C30.6377 28.0557 30.5266 27.9644 30.4144 27.872L30.2769 27.7609C30.1185 27.6377 30.0822 27.4144 30.1889 27.2472C30.2626 27.1317 30.3341 27.0129 30.4034 26.893C30.476 26.7698 30.6124 26.7016 30.7521 26.7005L30.8852 26.7049C31.0249 26.7104 31.1657 26.7159 31.3065 26.7126C32.2668 26.6796 33.2095 26.8325 34.1225 26.9755C34.436 27.025 34.7495 27.0756 35.063 27.1174C35.1268 27.1262 35.1884 27.1383 35.2478 27.1526C34.2963 26.1923 33.3426 25.3893 32.2569 25.0846C32.1062 25.0439 31.9588 24.9856 31.8125 24.9284L31.6508 24.8657C31.466 24.7964 31.3615 24.5995 31.4099 24.407L31.4484 24.2607C31.4704 24.1826 31.4913 24.1034 31.5078 24.0242C31.5375 23.8834 31.642 23.7712 31.7806 23.7305L31.9115 23.6931C32.0545 23.6535 32.1975 23.6128 32.3394 23.5622C33.2403 23.2377 34.183 23.0881 35.0949 22.9429C35.4084 22.8934 35.7241 22.8428 36.0354 22.7867C36.0981 22.7757 36.1608 22.768 36.2235 22.7636C35.0212 22.1443 33.8706 21.6779 32.7376 21.7219C32.5572 21.7285 32.3757 21.7197 32.192 21.7076L32.0259 21.6977C31.8312 21.6878 31.6739 21.5349 31.6596 21.3413C31.6497 21.2258 31.6409 21.1103 31.6266 20.997C31.609 20.8518 31.675 20.7099 31.796 20.6285C32.0248 20.4767 32.1876 20.3689 32.3449 20.2468C33.1039 19.6594 33.9553 19.2249 34.7781 18.8047C35.0608 18.6606 35.3424 18.5176 35.6196 18.368C35.6757 18.3372 35.7329 18.3108 35.7901 18.2877C34.4547 18.071 33.2106 17.9808 32.1546 18.3735C31.9445 18.4516 31.7256 18.5077 31.5078 18.5638L31.3813 18.5968C31.1943 18.6419 31.0029 18.5506 30.927 18.3735C30.9039 18.3174 30.8775 18.2646 30.85 18.2107L30.7862 18.0809C30.7235 17.9467 30.7433 17.7883 30.8357 17.6728C30.905 17.5881 30.9765 17.5078 31.0491 17.4275C31.147 17.3197 31.2438 17.2141 31.3263 17.092C31.8686 16.2956 32.5462 15.618 33.2007 14.9635C33.4229 14.7413 33.6451 14.5191 33.8618 14.2925C33.9058 14.2463 33.952 14.2034 33.9993 14.1638C32.6628 14.3695 31.4517 14.6676 30.5695 15.3683C30.3253 15.5619 30.058 15.7302 29.7896 15.8952C29.6257 15.992 29.4189 15.9623 29.2935 15.8204L29.1626 15.6763C29.0603 15.5663 29.0306 15.4068 29.0856 15.2671C29.1978 14.9877 29.299 14.7017 29.3848 14.4069C29.6521 13.4851 30.0855 12.6326 30.5057 11.8087C30.6487 11.5271 30.7928 11.2455 30.9292 10.9617C30.9578 10.9045 30.9875 10.8495 31.0216 10.7967C29.8138 11.405 28.7545 12.0639 28.1319 13.0022C27.9559 13.2673 27.7458 13.5346 27.4719 13.847C27.3498 13.9867 27.1463 14.0197 26.9846 13.9251C26.8559 13.8503 26.6667 13.6369 26.6788 13.4884C26.7074 13.1474 26.7184 12.8031 26.7085 12.4533C26.6777 11.4941 26.8273 10.5514 26.9714 9.63841C27.0209 9.32491 27.0715 9.01141 27.1133 8.69791C27.1221 8.63411 27.1342 8.57251 27.1485 8.51311C26.1882 9.46461 25.3852 10.4183 25.0805 11.5051C24.9782 11.8758 24.8407 12.2531 24.6724 12.6271C24.5965 12.7943 24.415 12.8878 24.2379 12.8471C24.0894 12.8152 23.9068 12.6832 23.8727 12.5358C23.7759 12.1068 23.6758 11.7526 23.5581 11.4226C23.2336 10.5206 23.0829 9.57791 22.9388 8.66601C22.8893 8.35251 22.8387 8.03901 22.7826 7.72661C22.7716 7.66391 22.7639 7.60121 22.7595 7.53961C22.1402 8.74191 21.6705 9.89691 21.7178 11.0244C21.7354 11.427 21.7156 11.8527 21.6595 12.3213C21.6397 12.4874 21.5154 12.6205 21.3526 12.6546C21.1898 12.6887 21.0226 12.6139 20.939 12.4687C20.6959 12.0474 20.4748 11.713 20.2438 11.4149C19.6553 10.6559 19.2208 9.80451 18.8006 8.98061C18.6576 8.69901 18.5135 8.41741 18.365 8.14021C18.3342 8.08301 18.3078 8.02691 18.2847 7.96971C18.0669 9.30401 17.9778 10.5481 18.3705 11.6052C18.5135 11.9902 18.629 12.417 18.7225 12.9098C18.7544 13.0737 18.6774 13.2387 18.5311 13.3201C18.3859 13.4026 18.2044 13.3828 18.0812 13.2695L17.9349 13.1364C17.6544 12.8801 17.3893 12.6381 17.089 12.4335C16.2981 11.8956 15.6216 11.2191 14.9671 10.5646C14.7438 10.3413 14.5205 10.1191 14.2939 9.90131C14.2466 9.85731 14.2037 9.81111 14.1641 9.76271C14.3698 11.0992 14.669 12.3114 15.3697 13.1947C15.6205 13.5104 15.8537 13.8646 16.0847 14.2782C16.1661 14.4234 16.1452 14.606 16.0319 14.7281C15.9208 14.8513 15.7415 14.8887 15.5886 14.8216C15.1442 14.6236 14.768 14.4839 14.4072 14.3783C13.4843 14.1099 12.6318 13.6765 11.8057 13.2552C11.5252 13.1122 11.2436 12.9692 10.9609 12.8328C10.9026 12.8053 10.8487 12.7745 10.7959 12.7415C11.4042 13.9493 12.0631 15.0086 13.0014 15.6323C13.3402 15.8578 13.6724 16.1229 14.0167 16.443C14.1388 16.5563 14.1751 16.7356 14.1058 16.8874C14.0365 17.0392 13.8748 17.1294 13.712 17.1129C13.2302 17.0634 12.8309 17.0447 12.4514 17.0557C11.4922 17.0887 10.5462 16.9358 9.63102 16.7917C9.31972 16.7422 9.00842 16.6927 8.69712 16.6509C8.63332 16.6432 8.57172 16.63 8.51232 16.6157C9.46382 17.576 10.4175 18.3801 11.5043 18.6837C11.8926 18.7915 12.2908 18.9411 12.7198 19.1402C12.8716 19.2106 12.9607 19.3701 12.942 19.5362C12.9233 19.7023 12.8012 19.8376 12.6384 19.8717C12.161 19.9729 11.7749 20.0796 11.4218 20.2072C10.5176 20.5328 9.57272 20.6824 8.65862 20.8276C8.34732 20.8771 8.03492 20.9266 7.72582 20.9827C7.66312 20.9937 7.60042 21.0014 7.53882 21.0058C8.74002 21.624 9.88292 22.0926 11.0236 22.0475C11.4262 22.0277 11.8486 22.0486 12.3205 22.1058C12.4866 22.1256 12.6208 22.2488 12.6538 22.4127C12.6868 22.5766 12.6131 22.7427 12.4679 22.8263C12.0477 23.0705 11.7122 23.2916 11.4152 23.5215C10.6573 24.1089 9.80592 24.5434 8.98312 24.9625C8.70042 25.1077 8.41882 25.2518 8.13942 25.4003C8.08332 25.4322 8.02612 25.4575 7.96892 25.4806C9.30322 25.6984 10.5495 25.7875 11.6044 25.3948C11.9828 25.2529 12.381 25.1429 12.8221 25.0538C13.0146 25.023 13.1983 25.1231 13.2621 25.3024C13.3105 25.4366 13.3039 25.6467 13.2093 25.7523L13.0289 25.9536C12.8111 26.1934 12.6054 26.42 12.4327 26.6752C11.8926 27.4694 11.2161 28.1459 10.5616 28.8004C10.3394 29.0237 10.1161 29.247 9.89832 29.4747C9.85432 29.5209 9.80702 29.5638 9.75972 29.6034C11.0962 29.3977 12.3084 29.0996 13.1917 28.3978C13.4733 28.1734 13.7846 27.9644 14.141 27.7576C14.3104 27.6575 14.5282 27.7037 14.6459 27.8599C14.7295 27.9699 14.8054 28.1943 14.7515 28.3219C14.5887 28.7058 14.4688 29.0358 14.3753 29.3592C14.1069 30.2821 13.6724 31.1357 13.2522 31.9607C13.1092 32.2423 12.9662 32.5228 12.8298 32.8055C12.8023 32.8627 12.7715 32.9166 12.7385 32.9705C13.9463 32.3622 15.0056 31.7033 15.6293 30.765C15.8273 30.4658 16.055 30.1941 16.2508 29.9675C16.3828 29.8157 16.6094 29.7915 16.77 29.907C16.88 29.9862 17.0813 30.2205 17.0714 30.3547C17.0483 30.6715 17.0417 30.9905 17.0516 31.3139C17.0824 32.2742 16.9328 33.2191 16.7876 34.1354C16.7381 34.4456 16.6886 34.758 16.6468 35.0693C16.6391 35.1331 16.6259 35.1947 16.6116 35.2541C17.5719 34.3026 18.376 33.3489 18.6796 32.2632C18.7533 31.997 18.8567 31.7407 18.9612 31.4833C19.025 31.3249 19.1933 31.2006 19.3605 31.2006Z" fill="#FFCA00"/>
<path opacity="0.53" d="M21.8828 29.9059C26.3122 29.9059 29.9029 26.3152 29.9029 21.8858C29.9029 17.4564 26.3122 13.8657 21.8828 13.8657C17.4535 13.8657 13.8627 17.4564 13.8627 21.8858C13.8627 26.3152 17.4535 29.9059 21.8828 29.9059Z" fill="#F9E52F"/>
<path opacity="0.61" d="M21.8828 28.5342C25.5546 28.5342 28.5312 25.5576 28.5312 21.8858C28.5312 18.214 25.5546 15.2374 21.8828 15.2374C18.211 15.2374 15.2344 18.214 15.2344 21.8858C15.2344 25.5576 18.211 28.5342 21.8828 28.5342Z" fill="#F5A800"/>
<path d="M21.8817 30.7783C16.9779 30.7783 12.9893 26.7886 12.9893 21.8848C12.9893 16.981 16.9779 12.9924 21.8817 12.9924C26.7855 12.9924 30.7752 16.981 30.7752 21.8848C30.7752 26.7886 26.7855 30.7783 21.8817 30.7783ZM21.8817 13.879C17.4663 13.879 13.8759 17.4705 13.8759 21.8848C13.8759 26.2991 17.4674 29.8906 21.8817 29.8906C26.296 29.8906 29.8875 26.2991 29.8875 21.8848C29.8875 17.4705 26.2971 13.879 21.8817 13.879Z" fill="black"/>
<path d="M28.3904 22.0938C28.1759 22.0938 28.0032 21.92 28.0032 21.7055C28.0032 18.3835 25.3005 15.6808 21.9774 15.6808C21.7629 15.6808 21.5891 15.507 21.5891 15.2925C21.5891 15.078 21.7629 14.9042 21.9774 14.9042C25.7273 14.9042 28.7776 17.9556 28.7776 21.7055C28.7776 21.92 28.6038 22.0938 28.3904 22.0938Z" fill="black"/>
<path opacity="0.63" d="M21.2339 22.5486C23.5056 22.0238 25.0482 20.3042 24.6794 18.7078C24.3106 17.1115 22.17 16.2428 19.8983 16.7677C17.6266 17.2925 16.084 19.0121 16.4528 20.6085C16.8216 22.2048 18.9622 23.0735 21.2339 22.5486Z" fill="#FBE68F"/>
</svg>
