<svg width="50" height="50" viewBox="0 0 50 50" fill="none" xmlns="http://www.w3.org/2000/svg">
<circle cx="25" cy="25" r="24.5" fill="#181818" stroke="white"/>
<path d="M38.0267 34.8714C38.0779 34.9309 38.1313 34.9883 38.1861 35.0432C38.2409 35.098 38.2984 35.1514 38.3579 35.2026C38.2984 35.2538 38.2409 35.3073 38.1861 35.3621C38.1313 35.4169 38.0779 35.4744 38.0267 35.5339C37.9754 35.4744 37.922 35.4169 37.8672 35.3621C37.8124 35.3073 37.7549 35.2538 37.6954 35.2026C37.7549 35.1514 37.8124 35.098 37.8672 35.0432C37.922 34.9883 37.9754 34.9309 38.0267 34.8714Z" fill="white" stroke="white"/>
<path d="M15.4256 40.0943C15.4768 40.1538 15.5302 40.2113 15.585 40.2661C15.6397 40.3208 15.697 40.3741 15.7563 40.4252C15.6968 40.4763 15.6394 40.5298 15.5846 40.5846C15.5298 40.6394 15.4763 40.6968 15.4252 40.7563C15.3741 40.697 15.3208 40.6397 15.2661 40.585C15.2113 40.5302 15.1538 40.4768 15.0943 40.4256C15.1538 40.3744 15.2113 40.3209 15.2661 40.2661C15.3209 40.2113 15.3744 40.1538 15.4256 40.0943Z" fill="white" stroke="white"/>
<path d="M40.8536 16.0096C40.7374 16.1011 40.6257 16.2009 40.5215 16.3052C40.4173 16.4094 40.3174 16.521 40.2259 16.6373C40.1343 16.5208 40.0343 16.409 39.9299 16.3046C39.8258 16.2005 39.7142 16.1009 39.5981 16.0095C39.7144 15.9178 39.8262 15.8179 39.9305 15.7136C40.0346 15.6095 40.1343 15.4979 40.2257 15.3818C40.3173 15.4981 40.4172 15.6099 40.5215 15.7142C40.6257 15.8184 40.7374 15.9181 40.8536 16.0096Z" fill="white" stroke="white"/>
<path d="M10.381 13.943C10.6811 13.7454 10.9737 13.502 11.2376 13.2382C11.5017 12.9741 11.7454 12.6813 11.9431 12.381C12.1407 12.6811 12.3841 12.9737 12.6479 13.2376C12.9121 13.5019 13.2052 13.7457 13.5057 13.9435C13.2054 14.1412 12.9126 14.3848 12.6485 14.6489C12.3845 14.9128 12.1409 15.2054 11.9432 15.5055C11.7456 15.2053 11.5022 14.9125 11.2382 14.6485C10.9741 14.3844 10.6813 14.1407 10.381 13.943Z" fill="white" stroke="white"/>
<path d="M28.2591 25.872C25.5295 30.5999 20.2954 32.8802 15.3727 32.0051C16.2238 33.0184 17.2173 33.9308 18.4236 34.6273C24.1854 37.9538 31.6547 35.8039 35.1064 29.8253C38.5581 23.8467 36.6854 16.3032 30.9236 12.9766C29.7173 12.2801 28.4309 11.8776 27.1273 11.6455C30.3459 15.4723 30.9881 21.1452 28.2591 25.872Z" fill="#FFD83B"/>
</svg>
